<svg viewBox="0 0 2280 738" version="1.1" xmlns="http://www.w3.org/2000/svg" xmlns:xlink="http://www.w3.org/1999/xlink" xml:space="preserve" style="fill-rule:evenodd;clip-rule:evenodd;stroke-linejoin:round;stroke-miterlimit:2;">
    <g transform="matrix(1,0,0,1,-110,-880.987)">
        <path d="M1182.61,1036.01L1300.83,1036.01C1300.83,1036.01 1417.88,1033.65 1416.7,1140.04C1415.53,1219.26 1303.21,1231.08 1303.21,1231.08L1182.62,1231.08L1182.62,1036.01L1182.61,1036.01ZM1536.28,1417.91C1539.6,1433.38 1550.8,1450.43 1588.13,1452.19C1637.78,1453.35 1666.16,1434.43 1666.16,1434.43L1666.16,1471.08C1666.16,1471.08 1611.78,1484.1 1585.76,1484.1C1558.58,1484.1 1478.18,1478.18 1478.18,1403.7C1478.18,1343.42 1544.39,1324.5 1582.21,1324.5C1648.42,1326.86 1680.34,1350.52 1679.16,1417.89C1679.16,1418.87 1570.22,1418.14 1536.28,1417.91ZM1536.44,1388.32L1627.15,1388.32C1627.15,1388.32 1627.15,1354.04 1583.4,1354.04C1550.5,1354.04 1539.73,1371.79 1536.44,1388.32ZM1823.39,1351.31C1836.52,1337.07 1858.55,1325.67 1895.52,1325.67C1968.82,1325.67 1980.65,1387.14 1979.47,1403.69C1978.29,1420.24 1972.38,1482.9 1887.27,1482.9C1855.12,1482.9 1835.44,1471.93 1823.41,1458.31L1823.41,1478.16L1765.47,1478.16L1765.47,1265.36L1823.41,1265.36L1823.41,1351.31L1823.39,1351.31ZM1873.07,1449.8C1907.35,1448.61 1922.72,1419.07 1922.72,1404.88C1922.72,1390.7 1914.43,1361.14 1870.68,1361.14C1836.74,1361.14 1826.4,1386.78 1823.39,1399.31L1823.39,1414.73C1826.38,1427.5 1836.77,1449.8 1873.07,1449.8ZM2373.17,1443.9L2374.34,1477.01C2374.34,1477.01 2347.15,1482.91 2329.42,1482.91C2311.69,1482.91 2265.56,1472.28 2265.56,1427.34L2265.56,1358.76L2217.1,1358.76L2217.1,1328.04L2265.56,1328.04L2265.56,1291.39L2324.69,1291.39L2324.69,1328.04L2373.17,1328.04L2373.17,1358.76L2324.69,1358.76L2324.69,1417.89C2324.69,1417.89 2324.69,1447.45 2348.35,1447.45C2371.97,1447.45 2373.17,1443.9 2373.17,1443.9ZM2193.46,1067.93L2262.03,1067.93L2262.03,1232.26L2319.94,1232.26L2319.94,1067.93L2389.7,1067.93L2389.7,1033.64L2193.46,1033.64L2193.46,1067.93ZM2169.8,1076.2L2176.9,1041.91C2176.9,1041.91 2147.34,1028.92 2095.33,1028.92C2044.49,1028.92 1962.92,1057.3 1962.92,1134.14C1962.92,1209.81 2049.22,1235.81 2102.43,1235.81C2155.63,1235.81 2173.36,1227.54 2173.36,1227.54L2167.45,1189.7C2167.45,1189.7 2143.8,1196.8 2103.59,1196.8C2064.58,1195.62 2024.41,1164.88 2024.41,1130.6C2025.58,1099.86 2061.04,1065.57 2107.17,1065.57C2142.62,1065.57 2169.8,1076.2 2169.8,1076.2ZM1647.24,1034.83C1647.24,1034.83 1744.19,1030.11 1744.19,1086.85C1744.19,1135.33 1688.64,1138.88 1688.64,1138.88C1688.64,1138.88 1703.99,1141.24 1711.1,1151.87C1717,1161.33 1756.02,1232.27 1756.02,1232.27L1696.89,1232.27C1696.89,1232.27 1687.43,1220.44 1682.7,1212.18C1679.16,1203.9 1668.51,1186.16 1668.51,1186.16C1668.51,1186.16 1660.25,1156.61 1631.86,1156.61C1631.14,1156.61 1619.6,1156.16 1610.57,1155.83L1610.57,1232.27L1553.83,1232.27L1553.83,1034.83L1647.24,1034.83ZM1610.59,1123.51L1641.34,1123.51C1641.34,1123.51 1683.89,1121.13 1686.25,1095.13C1687.44,1070.3 1644.89,1066.75 1644.89,1066.75L1610.59,1066.75L1610.59,1123.51ZM1848.22,1154.24L1942.81,1154.24L1942.81,1117.59L1848.22,1117.59L1848.22,1072.66L1951.09,1072.66L1951.09,1034.83L1790.32,1034.83L1790.32,1232.27L1952.29,1232.27L1952.29,1196.8L1848.23,1196.8L1848.23,1154.24L1848.22,1154.24ZM2078.76,1305.56L2136.69,1305.56L2136.69,1265.36L2078.76,1265.36L2078.76,1305.56ZM2078.76,1478.18L2136.69,1478.18L2136.69,1328.04L2078.76,1328.04L2078.76,1478.18ZM1447.45,1232.27L1504.19,1232.27L1504.19,1034.83L1447.45,1034.83L1447.45,1232.27ZM1182.61,1281.93L1300.83,1281.93C1300.83,1281.93 1417.88,1279.55 1416.7,1385.96C1415.53,1465.17 1303.21,1477.01 1303.21,1477.01L1182.62,1477.01L1182.62,1281.93L1182.61,1281.93ZM1240.55,1440.36L1278.38,1440.36C1278.38,1440.36 1356.4,1435.62 1356.4,1375.33C1356.4,1315.03 1273.64,1309.12 1273.64,1309.12L1240.55,1309.12L1240.55,1440.36ZM1240.55,1194.44L1278.38,1194.44C1278.38,1194.44 1356.4,1188.52 1356.4,1129.41C1356.4,1067.93 1273.64,1063.21 1273.64,1063.21L1240.55,1063.21L1240.55,1194.44ZM651.77,1153.54L651.77,1549.12C651.77,1549.12 422.399,1507.74 422.399,1350.5C422.412,1225.1 592.199,1169.82 651.77,1153.54ZM651.77,1146.16C513.914,1136.19 201.33,1200.81 201.33,1342.21C201.33,1434.42 366.85,1569.21 636.4,1572.75C647.036,1572.75 953.239,1560.92 948.518,1232.26C944.549,956.209 737.941,907.858 671.873,899.44L671.873,882.618C935.263,899.336 1142.42,1057.74 1142.42,1249.99C1142.42,1453.34 910.685,1618.85 625.765,1618.85C340.845,1618.85 110.295,1453.33 110.295,1249.99C110.295,1046.65 340.832,881.127 625.765,881.127C634.494,881.127 643.171,881.283 651.783,881.594L651.783,1146.16L651.77,1146.16Z"/>
    </g>
</svg>
